<svg width="578" height="94" viewBox="0 0 578 94" fill="none" xmlns="http://www.w3.org/2000/svg">
<path d="M32.4 71.72C32.208 71.72 32.016 71.648 31.824 71.504C31.632 71.36 31.488 71.048 31.392 70.568L25.848 48.248C25.8 47.864 25.656 47.696 25.416 47.744C25.176 47.744 25.008 47.912 24.912 48.248L18.72 70.568C18.576 71.048 18.408 71.36 18.216 71.504C18.072 71.648 17.904 71.72 17.712 71.72C17.52 71.72 17.304 71.648 17.064 71.504C16.872 71.36 16.728 71.048 16.632 70.568L5.25601 24.92C4.92001 23.576 4.53601 22.64 4.10401 22.112C3.72001 21.584 3.04801 21.224 2.08801 21.032L1.00801 20.816C0.336005 20.672 5.1707e-06 20.36 5.1707e-06 19.88C5.1707e-06 19.4 0.360005 19.16 1.08001 19.16H12.672C13.344 19.16 13.68 19.424 13.68 19.952C13.68 20.384 13.32 20.672 12.6 20.816L11.808 20.96C10.992 21.104 10.464 21.392 10.224 21.824C10.032 22.208 10.056 22.928 10.296 23.984L18.792 59.12C18.888 59.456 19.032 59.624 19.224 59.624C19.464 59.624 19.632 59.456 19.728 59.12L22.968 47.384C23.496 45.56 23.76 43.88 23.76 42.344C23.76 40.808 23.52 39.104 23.04 37.232L20.016 24.92C19.68 23.576 19.344 22.616 19.008 22.04C18.72 21.464 18.312 21.128 17.784 21.032L16.704 20.816C16.032 20.672 15.696 20.36 15.696 19.88C15.696 19.4 16.056 19.16 16.776 19.16H26.64C27.312 19.16 27.648 19.424 27.648 19.952C27.648 20.384 27.288 20.672 26.568 20.816L25.776 20.96C25.152 21.056 24.768 21.32 24.624 21.752C24.528 22.184 24.6 22.928 24.84 23.984L27.288 34.28C27.384 34.616 27.528 34.784 27.72 34.784C27.96 34.784 28.128 34.616 28.224 34.28L30.816 25.496C31.344 23.672 31.536 22.472 31.392 21.896C31.296 21.32 31.032 21.008 30.6 20.96L29.808 20.816C29.088 20.672 28.728 20.384 28.728 19.952C28.728 19.424 29.064 19.16 29.736 19.16H36.576C37.392 19.16 37.8 19.424 37.8 19.952C37.8 20.432 37.392 20.72 36.576 20.816L35.784 20.888C35.16 20.936 34.632 21.32 34.2 22.04C33.816 22.76 33.384 23.936 32.904 25.568L30.168 35C29.64 36.776 29.352 38.456 29.304 40.04C29.304 41.576 29.52 43.28 29.952 45.152L33.192 58.688C33.288 59.024 33.432 59.192 33.624 59.192C33.864 59.192 34.008 59.024 34.056 58.688L42.336 25.496C43.008 22.712 42.576 21.2 41.04 20.96L40.248 20.816C39.528 20.672 39.168 20.36 39.168 19.88C39.168 19.4 39.504 19.16 40.176 19.16H48.24C49.056 19.16 49.464 19.424 49.464 19.952C49.464 20.432 49.056 20.72 48.24 20.816L47.448 20.888C46.824 20.936 46.272 21.32 45.792 22.04C45.36 22.712 44.952 23.888 44.568 25.568L33.408 70.568C33.312 71.048 33.168 71.36 32.976 71.504C32.784 71.648 32.592 71.72 32.4 71.72ZM57.5888 71.648C55.2848 71.648 53.2208 70.88 51.3968 69.344C49.5728 67.808 48.1088 65.648 47.0048 62.864C45.9488 60.032 45.4208 56.768 45.4208 53.072C45.4208 49.28 45.9728 45.944 47.0768 43.064C48.1808 40.184 49.6928 37.928 51.6128 36.296C53.5328 34.664 55.6688 33.848 58.0208 33.848C60.8528 33.848 63.1328 35.024 64.8608 37.376C66.6368 39.68 67.5248 43.448 67.5248 48.68C67.5248 50.264 66.9248 51.056 65.7248 51.056H52.0448C51.0848 51.056 50.6048 51.608 50.6048 52.712C50.6048 57.8 51.3488 61.616 52.8368 64.16C54.3248 66.704 56.2208 67.976 58.5248 67.976C60.3488 67.976 61.8368 67.328 62.9888 66.032C64.1408 64.736 65.0768 62.552 65.7968 59.48C65.9408 58.952 66.2528 58.688 66.7328 58.688C67.3088 58.688 67.5248 59.168 67.3808 60.128C66.6128 64.4 65.3888 67.4 63.7088 69.128C62.0288 70.808 59.9888 71.648 57.5888 71.648ZM51.8288 49.256H59.1008C61.4048 49.256 62.5568 48.056 62.5568 45.656C62.5568 42.536 62.1728 40.088 61.4048 38.312C60.6368 36.536 59.4848 35.648 57.9488 35.648C56.0768 35.648 54.4928 36.728 53.1968 38.888C51.9488 41.048 51.1328 44.12 50.7488 48.104C50.6528 48.872 51.0128 49.256 51.8288 49.256ZM84.1905 71.648C82.2225 71.648 80.3265 71.024 78.5025 69.776C77.4465 69.056 76.4865 69.248 75.6225 70.352C75.1425 70.88 74.7825 71.216 74.5425 71.36C74.3025 71.552 74.0625 71.648 73.8225 71.648C73.2945 71.648 73.1025 71.312 73.2465 70.64C73.4385 69.536 73.5825 68.12 73.6785 66.392C73.7745 64.664 73.8225 62.36 73.8225 59.48V24.92C73.8225 24.056 73.6785 23.48 73.3905 23.192C73.1505 22.856 72.6945 22.64 72.0225 22.544L70.5105 22.328C69.9825 22.232 69.7185 21.944 69.7185 21.464C69.7185 20.984 69.9825 20.696 70.5105 20.6C71.8545 20.312 72.9825 19.976 73.8945 19.592C74.8065 19.208 75.5745 18.824 76.1985 18.44C76.9665 17.96 77.5425 17.72 77.9265 17.72C78.4545 17.72 78.7185 18.104 78.7185 18.872V36.656C78.7185 37.04 78.8625 37.304 79.1505 37.448C79.4865 37.544 79.8465 37.4 80.2305 37.016C82.2945 34.904 84.5505 33.848 86.9985 33.848C89.2065 33.848 91.1505 34.592 92.8305 36.08C94.5585 37.52 95.9025 39.536 96.8625 42.128C97.8705 44.72 98.3745 47.768 98.3745 51.272C98.3745 55.256 97.7505 58.784 96.5025 61.856C95.2545 64.928 93.5505 67.328 91.3905 69.056C89.2785 70.784 86.8785 71.648 84.1905 71.648ZM84.0465 69.848C86.7345 69.848 88.8945 68.264 90.5265 65.096C92.2065 61.928 93.0465 57.656 93.0465 52.28C93.0465 47.336 92.3265 43.568 90.8865 40.976C89.4465 38.384 87.4065 37.088 84.7665 37.088C83.1345 37.088 81.7185 37.76 80.5185 39.104C79.3185 40.448 78.7185 42.32 78.7185 44.72V62.864C78.7185 65.024 79.1985 66.728 80.1585 67.976C81.1665 69.224 82.4625 69.848 84.0465 69.848ZM110.712 71.648C109.608 71.648 108.432 71.504 107.184 71.216C105.936 70.976 104.928 70.664 104.16 70.28C103.728 70.04 103.512 69.632 103.512 69.056L103.296 60.992C103.296 60.176 103.608 59.768 104.232 59.768C104.76 59.768 105.12 60.152 105.312 60.92C106.128 64.328 107.112 66.656 108.264 67.904C109.464 69.152 110.904 69.776 112.584 69.776C113.976 69.776 115.128 69.248 116.04 68.192C116.952 67.088 117.408 65.576 117.408 63.656C117.408 61.736 116.88 60.032 115.824 58.544C114.768 57.056 112.992 55.424 110.496 53.648C108 51.968 106.176 50.288 105.024 48.608C103.872 46.88 103.296 45.008 103.296 42.992C103.296 40.256 104.256 38.048 106.176 36.368C108.096 34.688 110.64 33.848 113.808 33.848C114.768 33.848 115.704 33.968 116.616 34.208C117.528 34.4 118.344 34.736 119.064 35.216C119.496 35.504 119.712 35.888 119.712 36.368L119.856 44.288C119.856 45.008 119.568 45.368 118.992 45.368C118.656 45.368 118.416 45.272 118.272 45.08C118.128 44.84 118.008 44.552 117.912 44.216C116.952 41.096 115.992 38.936 115.032 37.736C114.072 36.488 112.896 35.864 111.504 35.864C110.256 35.864 109.224 36.296 108.408 37.16C107.592 38.024 107.184 39.104 107.184 40.4C107.184 42.08 107.688 43.544 108.696 44.792C109.704 46.04 111.528 47.576 114.168 49.4C116.568 51.128 118.368 53 119.568 55.016C120.816 56.984 121.44 59.144 121.44 61.496C121.44 64.568 120.456 67.04 118.488 68.912C116.52 70.736 113.928 71.648 110.712 71.648ZM131.637 27.44C130.629 27.44 129.765 27.08 129.045 26.36C128.373 25.64 128.037 24.728 128.037 23.624C128.037 22.52 128.373 21.632 129.045 20.96C129.765 20.24 130.629 19.88 131.637 19.88C132.645 19.88 133.485 20.24 134.157 20.96C134.829 21.632 135.165 22.52 135.165 23.624C135.165 24.728 134.829 25.64 134.157 26.36C133.485 27.08 132.645 27.44 131.637 27.44ZM125.589 71C124.869 71 124.509 70.736 124.509 70.208C124.509 69.776 124.821 69.488 125.445 69.344L126.309 69.2C127.509 69.008 128.277 68.72 128.613 68.336C128.949 67.904 129.117 67.184 129.117 66.176V41.984C129.117 41.12 128.973 40.544 128.685 40.256C128.445 39.92 127.989 39.704 127.317 39.608L125.805 39.392C125.181 39.344 124.869 39.08 124.869 38.6C124.869 38.216 125.253 37.952 126.021 37.808C127.509 37.568 128.709 37.184 129.621 36.656C130.533 36.128 131.421 35.48 132.285 34.712C132.717 34.28 133.077 34.064 133.365 34.064C133.797 34.064 134.013 34.352 134.013 34.928V66.176C134.013 67.184 134.157 67.904 134.445 68.336C134.733 68.768 135.285 69.032 136.101 69.128L137.901 69.344C138.429 69.44 138.693 69.704 138.693 70.136C138.693 70.712 138.333 71 137.613 71H125.589ZM150.044 71.648C148.364 71.648 146.972 71.072 145.868 69.92C144.812 68.72 144.284 66.776 144.284 64.088V37.16C144.284 36.584 143.996 36.296 143.42 36.296H141.332C140.564 36.296 140.18 36.008 140.18 35.432C140.18 35.048 140.396 34.712 140.828 34.424C142.412 33.32 143.684 32.144 144.644 30.896C145.604 29.6 146.444 27.848 147.164 25.64C147.5 24.632 147.908 24.128 148.388 24.128C148.916 24.128 149.18 24.512 149.18 25.28V33.272C149.18 33.944 149.516 34.28 150.188 34.28H154.868C155.636 34.28 156.02 34.616 156.02 35.288C156.02 35.96 155.636 36.296 154.868 36.296H150.188C149.516 36.296 149.18 36.632 149.18 37.304V64.16C149.18 65.216 149.348 66.056 149.684 66.68C150.02 67.256 150.644 67.544 151.556 67.544C152.564 67.544 153.38 67.04 154.004 66.032C154.676 65.024 155.108 63.392 155.3 61.136C155.396 60.464 155.708 60.128 156.236 60.128C156.812 60.128 157.1 60.488 157.1 61.208C156.956 64.904 156.188 67.568 154.796 69.2C153.452 70.832 151.868 71.648 150.044 71.648ZM171.917 71.648C169.613 71.648 167.549 70.88 165.725 69.344C163.901 67.808 162.437 65.648 161.333 62.864C160.277 60.032 159.749 56.768 159.749 53.072C159.749 49.28 160.301 45.944 161.405 43.064C162.509 40.184 164.021 37.928 165.941 36.296C167.861 34.664 169.997 33.848 172.349 33.848C175.181 33.848 177.461 35.024 179.189 37.376C180.965 39.68 181.853 43.448 181.853 48.68C181.853 50.264 181.253 51.056 180.053 51.056H166.373C165.413 51.056 164.933 51.608 164.933 52.712C164.933 57.8 165.677 61.616 167.165 64.16C168.653 66.704 170.549 67.976 172.853 67.976C174.677 67.976 176.165 67.328 177.317 66.032C178.469 64.736 179.405 62.552 180.125 59.48C180.269 58.952 180.581 58.688 181.061 58.688C181.637 58.688 181.853 59.168 181.709 60.128C180.941 64.4 179.717 67.4 178.037 69.128C176.357 70.808 174.317 71.648 171.917 71.648ZM166.157 49.256H173.429C175.733 49.256 176.885 48.056 176.885 45.656C176.885 42.536 176.501 40.088 175.733 38.312C174.965 36.536 173.813 35.648 172.277 35.648C170.405 35.648 168.821 36.728 167.525 38.888C166.277 41.048 165.461 44.12 165.077 48.104C164.981 48.872 165.341 49.256 166.157 49.256Z" fill="white"/>
<path d="M204.888 71.648C201.336 71.648 198.216 70.544 195.528 68.336C192.888 66.128 190.824 63.032 189.336 59.048C187.896 55.016 187.176 50.264 187.176 44.792C187.176 39.512 187.968 34.904 189.552 30.968C191.184 26.984 193.344 23.912 196.032 21.752C198.768 19.544 201.792 18.44 205.104 18.44C207.072 18.44 208.8 18.632 210.288 19.016C211.776 19.352 213.096 19.808 214.248 20.384C214.824 20.72 215.112 21.224 215.112 21.896L215.328 32.84C215.328 33.656 215.04 34.064 214.464 34.064C213.936 34.064 213.6 33.752 213.456 33.128L212.736 30.464C211.728 26.72 210.552 24.128 209.208 22.688C207.912 21.248 206.352 20.528 204.528 20.528C201.168 20.528 198.36 22.616 196.104 26.792C193.896 30.92 192.792 36.92 192.792 44.792C192.792 50.168 193.344 54.704 194.448 58.4C195.6 62.096 197.064 64.88 198.84 66.752C200.664 68.624 202.584 69.56 204.6 69.56C206.76 69.56 208.488 68.888 209.784 67.544C211.128 66.2 212.256 63.608 213.168 59.768L214.032 56.24C214.176 55.52 214.56 55.208 215.184 55.304C215.712 55.4 215.976 55.808 215.976 56.528L215.688 68.192C215.688 68.864 215.376 69.368 214.752 69.704C213.6 70.28 212.232 70.736 210.648 71.072C209.112 71.456 207.192 71.648 204.888 71.648ZM229.978 38.888C231.946 35.528 234.322 33.848 237.106 33.848C238.69 33.848 239.866 34.328 240.634 35.288C241.402 36.2 241.786 37.232 241.786 38.384C241.786 39.296 241.546 40.04 241.066 40.616C240.634 41.192 239.938 41.48 238.978 41.48C238.21 41.48 237.634 41.312 237.25 40.976C236.914 40.592 236.626 40.16 236.386 39.68C236.194 39.2 235.954 38.792 235.666 38.456C235.378 38.072 234.898 37.88 234.226 37.88C233.362 37.88 232.546 38.408 231.778 39.464C231.01 40.472 230.362 41.84 229.834 43.568C229.354 45.296 229.114 47.264 229.114 49.472V66.176C229.114 67.184 229.258 67.904 229.546 68.336C229.882 68.768 230.554 69.032 231.562 69.128L233.506 69.344C234.034 69.44 234.298 69.704 234.298 70.136C234.298 70.712 233.938 71 233.218 71H221.05C220.33 71 219.97 70.736 219.97 70.208C219.97 69.776 220.282 69.488 220.906 69.344L221.77 69.2C222.778 69.008 223.426 68.72 223.714 68.336C224.05 67.904 224.218 67.184 224.218 66.176V41.984C224.218 41.12 224.074 40.544 223.786 40.256C223.546 39.92 223.09 39.704 222.418 39.608L220.906 39.392C220.282 39.344 219.97 39.08 219.97 38.6C219.97 38.216 220.354 37.952 221.122 37.808C222.61 37.568 223.738 37.184 224.506 36.656C225.322 36.128 226.162 35.48 227.026 34.712C227.458 34.28 227.818 34.064 228.106 34.064C228.538 34.064 228.754 34.352 228.754 34.928V38.816C228.754 39.152 228.898 39.368 229.186 39.464C229.474 39.512 229.738 39.32 229.978 38.888ZM255.636 71.648C253.332 71.648 251.268 70.88 249.444 69.344C247.62 67.808 246.156 65.648 245.052 62.864C243.996 60.032 243.468 56.768 243.468 53.072C243.468 49.28 244.02 45.944 245.124 43.064C246.228 40.184 247.74 37.928 249.66 36.296C251.58 34.664 253.716 33.848 256.068 33.848C258.9 33.848 261.18 35.024 262.908 37.376C264.684 39.68 265.572 43.448 265.572 48.68C265.572 50.264 264.972 51.056 263.772 51.056H250.092C249.132 51.056 248.652 51.608 248.652 52.712C248.652 57.8 249.396 61.616 250.884 64.16C252.372 66.704 254.268 67.976 256.572 67.976C258.396 67.976 259.884 67.328 261.036 66.032C262.188 64.736 263.124 62.552 263.844 59.48C263.988 58.952 264.3 58.688 264.78 58.688C265.356 58.688 265.572 59.168 265.428 60.128C264.66 64.4 263.436 67.4 261.756 69.128C260.076 70.808 258.036 71.648 255.636 71.648ZM249.876 49.256H257.148C259.452 49.256 260.604 48.056 260.604 45.656C260.604 42.536 260.22 40.088 259.452 38.312C258.684 36.536 257.532 35.648 255.996 35.648C254.124 35.648 252.54 36.728 251.244 38.888C249.996 41.048 249.18 44.12 248.796 48.104C248.7 48.872 249.06 49.256 249.876 49.256ZM280.437 71.648C278.325 71.648 276.429 70.928 274.749 69.488C273.117 68 271.845 65.96 270.933 63.368C270.021 60.728 269.565 57.68 269.565 54.224C269.565 50.192 270.189 46.664 271.437 43.64C272.685 40.568 274.413 38.168 276.621 36.44C278.829 34.712 281.325 33.848 284.109 33.848C284.781 33.848 285.453 33.92 286.125 34.064C286.797 34.16 287.445 34.352 288.069 34.64C288.837 35.024 289.221 34.856 289.221 34.136V24.92C289.221 24.056 289.077 23.456 288.789 23.12C288.549 22.784 288.093 22.592 287.421 22.544L285.549 22.328C285.021 22.232 284.757 21.944 284.757 21.464C284.757 20.984 285.021 20.696 285.549 20.6C287.085 20.312 288.309 19.976 289.221 19.592C290.181 19.208 290.973 18.824 291.597 18.44C292.365 17.96 292.941 17.72 293.325 17.72C293.853 17.72 294.117 18.104 294.117 18.872V64.16C294.117 66.176 294.621 67.184 295.629 67.184C296.253 67.184 296.829 66.776 297.357 65.96C297.885 65.096 298.149 63.656 298.149 61.64C298.149 60.872 298.461 60.488 299.085 60.488C299.661 60.488 299.949 60.896 299.949 61.712C299.949 65.216 299.349 67.76 298.149 69.344C296.949 70.88 295.581 71.648 294.045 71.648C292.653 71.648 291.597 71.192 290.877 70.28C290.157 69.32 289.677 68.192 289.437 66.896C289.389 66.512 289.221 66.32 288.933 66.32C288.645 66.272 288.381 66.44 288.141 66.824C286.797 68.696 285.573 69.968 284.469 70.64C283.365 71.312 282.021 71.648 280.437 71.648ZM282.021 68.336C283.269 68.336 284.421 67.928 285.477 67.112C286.581 66.248 287.469 65.096 288.141 63.656C288.861 62.216 289.221 60.608 289.221 58.832V42.632C289.221 40.472 288.717 38.768 287.709 37.52C286.749 36.272 285.477 35.648 283.893 35.648C281.205 35.648 279.021 37.232 277.341 40.4C275.709 43.52 274.893 47.792 274.893 53.216C274.893 58.16 275.517 61.928 276.765 64.52C278.061 67.064 279.813 68.336 282.021 68.336ZM308.52 27.44C307.512 27.44 306.648 27.08 305.928 26.36C305.256 25.64 304.92 24.728 304.92 23.624C304.92 22.52 305.256 21.632 305.928 20.96C306.648 20.24 307.512 19.88 308.52 19.88C309.528 19.88 310.368 20.24 311.04 20.96C311.712 21.632 312.048 22.52 312.048 23.624C312.048 24.728 311.712 25.64 311.04 26.36C310.368 27.08 309.528 27.44 308.52 27.44ZM302.472 71C301.752 71 301.392 70.736 301.392 70.208C301.392 69.776 301.704 69.488 302.328 69.344L303.192 69.2C304.392 69.008 305.16 68.72 305.496 68.336C305.832 67.904 306 67.184 306 66.176V41.984C306 41.12 305.856 40.544 305.568 40.256C305.328 39.92 304.872 39.704 304.2 39.608L302.688 39.392C302.064 39.344 301.752 39.08 301.752 38.6C301.752 38.216 302.136 37.952 302.904 37.808C304.392 37.568 305.592 37.184 306.504 36.656C307.416 36.128 308.304 35.48 309.168 34.712C309.6 34.28 309.96 34.064 310.248 34.064C310.68 34.064 310.896 34.352 310.896 34.928V66.176C310.896 67.184 311.04 67.904 311.328 68.336C311.616 68.768 312.168 69.032 312.984 69.128L314.784 69.344C315.312 69.44 315.576 69.704 315.576 70.136C315.576 70.712 315.216 71 314.496 71H302.472ZM326.927 71.648C325.247 71.648 323.855 71.072 322.751 69.92C321.695 68.72 321.167 66.776 321.167 64.088V37.16C321.167 36.584 320.879 36.296 320.303 36.296H318.215C317.447 36.296 317.063 36.008 317.063 35.432C317.063 35.048 317.279 34.712 317.711 34.424C319.295 33.32 320.567 32.144 321.527 30.896C322.487 29.6 323.327 27.848 324.047 25.64C324.383 24.632 324.791 24.128 325.271 24.128C325.799 24.128 326.063 24.512 326.063 25.28V33.272C326.063 33.944 326.399 34.28 327.071 34.28H331.751C332.519 34.28 332.903 34.616 332.903 35.288C332.903 35.96 332.519 36.296 331.751 36.296H327.071C326.399 36.296 326.063 36.632 326.063 37.304V64.16C326.063 65.216 326.231 66.056 326.567 66.68C326.903 67.256 327.527 67.544 328.439 67.544C329.447 67.544 330.263 67.04 330.887 66.032C331.559 65.024 331.991 63.392 332.183 61.136C332.279 60.464 332.591 60.128 333.119 60.128C333.695 60.128 333.983 60.488 333.983 61.208C333.839 64.904 333.071 67.568 331.679 69.2C330.335 70.832 328.751 71.648 326.927 71.648Z" fill="white"/>
<path d="M348.544 71.648C347.584 71.648 346.504 71.552 345.304 71.36C344.152 71.168 343.048 70.928 341.992 70.64C340.984 70.352 340.192 70.04 339.616 69.704C339.28 69.512 339.016 69.32 338.824 69.128C338.68 68.888 338.608 68.504 338.608 67.976L338.248 56.672C338.248 55.712 338.56 55.232 339.184 55.232C339.712 55.232 340.072 55.664 340.264 56.528L340.912 59.264C342.544 66.128 345.592 69.56 350.056 69.56C352.456 69.56 354.352 68.768 355.744 67.184C357.184 65.552 357.904 63.272 357.904 60.344C357.904 57.512 357.16 54.872 355.672 52.424C354.232 49.976 351.904 47.552 348.688 45.152C345.136 42.608 342.544 40.16 340.912 37.808C339.28 35.408 338.464 32.864 338.464 30.176C338.464 26.624 339.688 23.792 342.136 21.68C344.632 19.52 347.8 18.44 351.64 18.44C353.08 18.44 354.472 18.608 355.816 18.944C357.16 19.28 358.264 19.76 359.128 20.384C359.416 20.576 359.632 20.792 359.776 21.032C359.968 21.272 360.064 21.584 360.064 21.968L360.28 32.84C360.28 33.656 359.968 34.064 359.344 34.064C358.912 34.064 358.6 33.728 358.408 33.056L357.904 31.256C356.848 27.56 355.744 24.872 354.592 23.192C353.488 21.464 351.88 20.6 349.768 20.6C347.704 20.6 346.048 21.272 344.8 22.616C343.6 23.96 343 25.856 343 28.304C343 30.368 343.672 32.336 345.016 34.208C346.36 36.08 348.712 38.36 352.072 41.048C355.672 43.976 358.288 46.808 359.92 49.544C361.6 52.232 362.44 55.112 362.44 58.184C362.44 60.872 361.84 63.224 360.64 65.24C359.44 67.256 357.784 68.84 355.672 69.992C353.608 71.096 351.232 71.648 348.544 71.648ZM377.576 71.648C375.464 71.648 373.544 70.952 371.816 69.56C370.136 68.12 368.792 66.08 367.784 63.44C366.776 60.8 366.272 57.656 366.272 54.008C366.272 49.928 366.872 46.376 368.072 43.352C369.32 40.328 371 38 373.112 36.368C375.224 34.688 377.576 33.848 380.168 33.848C382.376 33.848 384.104 34.28 385.352 35.144C385.832 35.48 386.072 36.008 386.072 36.728L386.216 45.512C386.216 46.232 385.928 46.592 385.352 46.592C384.824 46.592 384.488 46.28 384.344 45.656C383.672 43.016 383.024 40.976 382.4 39.536C381.776 38.096 381.128 37.112 380.456 36.584C379.784 36.008 379.04 35.72 378.224 35.72C377.264 35.72 376.256 36.272 375.2 37.376C374.192 38.48 373.328 40.28 372.608 42.776C371.936 45.224 371.6 48.464 371.6 52.496C371.6 57.632 372.248 61.496 373.544 64.088C374.888 66.68 376.616 67.976 378.728 67.976C380.408 67.976 381.8 67.28 382.904 65.888C384.056 64.496 385.04 61.976 385.856 58.328C386 57.8 386.288 57.536 386.72 57.536C387.296 57.536 387.512 58.016 387.368 58.976C386.84 62.336 386.096 64.952 385.136 66.824C384.224 68.648 383.12 69.92 381.824 70.64C380.576 71.312 379.16 71.648 377.576 71.648ZM403.631 71.648C401.183 71.648 398.975 70.832 397.007 69.2C395.087 67.52 393.551 65.24 392.399 62.36C391.247 59.48 390.671 56.264 390.671 52.712C390.671 49.16 391.247 45.968 392.399 43.136C393.551 40.304 395.111 38.048 397.079 36.368C399.047 34.688 401.231 33.848 403.631 33.848C406.079 33.848 408.263 34.688 410.183 36.368C412.151 38.048 413.711 40.304 414.863 43.136C416.015 45.968 416.591 49.16 416.591 52.712C416.591 56.264 416.015 59.48 414.863 62.36C413.759 65.24 412.223 67.52 410.255 69.2C408.287 70.832 406.079 71.648 403.631 71.648ZM403.631 69.848C408.623 69.848 411.119 64.136 411.119 52.712C411.119 41.336 408.623 35.648 403.631 35.648C398.639 35.648 396.143 41.336 396.143 52.712C396.143 64.136 398.639 69.848 403.631 69.848ZM429.493 38.888C431.461 35.528 433.837 33.848 436.621 33.848C438.205 33.848 439.381 34.328 440.149 35.288C440.917 36.2 441.301 37.232 441.301 38.384C441.301 39.296 441.061 40.04 440.581 40.616C440.149 41.192 439.453 41.48 438.493 41.48C437.725 41.48 437.149 41.312 436.765 40.976C436.429 40.592 436.141 40.16 435.901 39.68C435.709 39.2 435.469 38.792 435.181 38.456C434.893 38.072 434.413 37.88 433.741 37.88C432.877 37.88 432.061 38.408 431.293 39.464C430.525 40.472 429.877 41.84 429.349 43.568C428.869 45.296 428.629 47.264 428.629 49.472V66.176C428.629 67.184 428.773 67.904 429.061 68.336C429.397 68.768 430.069 69.032 431.077 69.128L433.021 69.344C433.549 69.44 433.813 69.704 433.813 70.136C433.813 70.712 433.453 71 432.733 71H420.565C419.845 71 419.485 70.736 419.485 70.208C419.485 69.776 419.797 69.488 420.421 69.344L421.285 69.2C422.293 69.008 422.941 68.72 423.229 68.336C423.565 67.904 423.733 67.184 423.733 66.176V41.984C423.733 41.12 423.589 40.544 423.301 40.256C423.061 39.92 422.605 39.704 421.933 39.608L420.421 39.392C419.797 39.344 419.485 39.08 419.485 38.6C419.485 38.216 419.869 37.952 420.637 37.808C422.125 37.568 423.253 37.184 424.021 36.656C424.837 36.128 425.677 35.48 426.541 34.712C426.973 34.28 427.333 34.064 427.621 34.064C428.053 34.064 428.269 34.352 428.269 34.928V38.816C428.269 39.152 428.413 39.368 428.701 39.464C428.989 39.512 429.253 39.32 429.493 38.888ZM455.151 71.648C452.847 71.648 450.783 70.88 448.959 69.344C447.135 67.808 445.671 65.648 444.567 62.864C443.511 60.032 442.983 56.768 442.983 53.072C442.983 49.28 443.535 45.944 444.639 43.064C445.743 40.184 447.255 37.928 449.175 36.296C451.095 34.664 453.231 33.848 455.583 33.848C458.415 33.848 460.695 35.024 462.423 37.376C464.199 39.68 465.087 43.448 465.087 48.68C465.087 50.264 464.487 51.056 463.287 51.056H449.607C448.647 51.056 448.167 51.608 448.167 52.712C448.167 57.8 448.911 61.616 450.399 64.16C451.887 66.704 453.783 67.976 456.087 67.976C457.911 67.976 459.399 67.328 460.551 66.032C461.703 64.736 462.639 62.552 463.359 59.48C463.503 58.952 463.815 58.688 464.295 58.688C464.871 58.688 465.087 59.168 464.943 60.128C464.175 64.4 462.951 67.4 461.271 69.128C459.591 70.808 457.551 71.648 455.151 71.648ZM449.391 49.256H456.663C458.967 49.256 460.119 48.056 460.119 45.656C460.119 42.536 459.735 40.088 458.967 38.312C458.199 36.536 457.047 35.648 455.511 35.648C453.639 35.648 452.055 36.728 450.759 38.888C449.511 41.048 448.695 44.12 448.311 48.104C448.215 48.872 448.575 49.256 449.391 49.256Z" fill="white"/>
<path d="M475 71.648C473.944 71.648 473.032 71.312 472.264 70.64C471.544 69.92 471.184 68.984 471.184 67.832C471.184 66.728 471.544 65.84 472.264 65.168C473.032 64.448 473.944 64.088 475 64.088C475.96 64.088 476.824 64.448 477.592 65.168C478.36 65.84 478.744 66.728 478.744 67.832C478.744 68.984 478.36 69.92 477.592 70.64C476.824 71.312 475.96 71.648 475 71.648ZM490.665 71.648C488.553 71.648 486.633 70.952 484.905 69.56C483.225 68.12 481.881 66.08 480.873 63.44C479.865 60.8 479.361 57.656 479.361 54.008C479.361 49.928 479.961 46.376 481.161 43.352C482.409 40.328 484.089 38 486.201 36.368C488.313 34.688 490.665 33.848 493.257 33.848C495.465 33.848 497.193 34.28 498.441 35.144C498.921 35.48 499.161 36.008 499.161 36.728L499.305 45.512C499.305 46.232 499.017 46.592 498.441 46.592C497.913 46.592 497.577 46.28 497.433 45.656C496.761 43.016 496.113 40.976 495.489 39.536C494.865 38.096 494.217 37.112 493.545 36.584C492.873 36.008 492.129 35.72 491.313 35.72C490.353 35.72 489.345 36.272 488.289 37.376C487.281 38.48 486.417 40.28 485.697 42.776C485.025 45.224 484.689 48.464 484.689 52.496C484.689 57.632 485.337 61.496 486.633 64.088C487.977 66.68 489.705 67.976 491.817 67.976C493.497 67.976 494.889 67.28 495.993 65.888C497.145 64.496 498.129 61.976 498.945 58.328C499.089 57.8 499.377 57.536 499.809 57.536C500.385 57.536 500.601 58.016 500.457 58.976C499.929 62.336 499.185 64.952 498.225 66.824C497.313 68.648 496.209 69.92 494.913 70.64C493.665 71.312 492.249 71.648 490.665 71.648ZM513.84 71.648C511.392 71.648 509.184 70.832 507.216 69.2C505.296 67.52 503.76 65.24 502.608 62.36C501.456 59.48 500.88 56.264 500.88 52.712C500.88 49.16 501.456 45.968 502.608 43.136C503.76 40.304 505.32 38.048 507.288 36.368C509.256 34.688 511.44 33.848 513.84 33.848C516.288 33.848 518.472 34.688 520.392 36.368C522.36 38.048 523.92 40.304 525.072 43.136C526.224 45.968 526.8 49.16 526.8 52.712C526.8 56.264 526.224 59.48 525.072 62.36C523.968 65.24 522.432 67.52 520.464 69.2C518.496 70.832 516.288 71.648 513.84 71.648ZM513.84 69.848C518.832 69.848 521.328 64.136 521.328 52.712C521.328 41.336 518.832 35.648 513.84 35.648C508.848 35.648 506.352 41.336 506.352 52.712C506.352 64.136 508.848 69.848 513.84 69.848ZM527.894 71C527.174 71 526.814 70.736 526.814 70.208C526.814 69.776 527.126 69.488 527.75 69.344L528.614 69.2C529.622 69.008 530.27 68.72 530.558 68.336C530.894 67.904 531.062 67.184 531.062 66.176V41.984C531.062 41.12 530.918 40.544 530.63 40.256C530.39 39.92 529.934 39.704 529.262 39.608L527.75 39.392C527.126 39.344 526.814 39.08 526.814 38.6C526.814 38.216 527.198 37.952 527.966 37.808C529.454 37.568 530.582 37.184 531.35 36.656C532.166 36.128 533.006 35.48 533.87 34.712C534.302 34.28 534.662 34.064 534.95 34.064C535.382 34.064 535.598 34.352 535.598 34.928V38.168C535.598 38.504 535.742 38.768 536.03 38.96C536.318 39.104 536.63 39.008 536.966 38.672C538.934 36.8 540.638 35.528 542.078 34.856C543.566 34.184 545.054 33.848 546.542 33.848C547.934 33.848 549.158 34.232 550.214 35C551.318 35.72 552.134 36.824 552.662 38.312C552.806 38.696 553.046 38.936 553.382 39.032C553.766 39.08 554.126 38.936 554.462 38.6C556.43 36.776 558.134 35.528 559.574 34.856C561.014 34.184 562.478 33.848 563.966 33.848C565.982 33.848 567.614 34.616 568.862 36.152C570.158 37.64 570.806 39.848 570.806 42.776V66.176C570.806 67.184 570.95 67.904 571.238 68.336C571.574 68.72 572.246 68.984 573.254 69.128L574.838 69.344C575.366 69.44 575.63 69.728 575.63 70.208C575.63 70.736 575.342 71 574.766 71H562.454C561.782 71 561.446 70.736 561.446 70.208C561.446 69.728 561.71 69.44 562.238 69.344L563.246 69.2C564.35 69.056 565.07 68.768 565.406 68.336C565.742 67.904 565.91 67.184 565.91 66.176V43.568C565.91 41.216 565.478 39.56 564.614 38.6C563.798 37.64 562.67 37.16 561.23 37.16C559.79 37.16 558.47 37.616 557.27 38.528C556.118 39.392 555.182 40.568 554.462 42.056C553.742 43.496 553.382 45.104 553.382 46.88V66.176C553.382 67.184 553.55 67.904 553.886 68.336C554.222 68.72 554.918 68.984 555.974 69.128L557.558 69.344C558.086 69.44 558.35 69.728 558.35 70.208C558.35 70.736 558.062 71 557.486 71H545.246C544.574 71 544.238 70.736 544.238 70.208C544.238 69.728 544.502 69.44 545.03 69.344L546.038 69.2C547.046 69.056 547.694 68.768 547.982 68.336C548.318 67.904 548.486 67.184 548.486 66.176V43.568C548.486 41.216 548.054 39.56 547.19 38.6C546.374 37.64 545.246 37.16 543.806 37.16C542.366 37.16 541.046 37.616 539.846 38.528C538.694 39.392 537.758 40.568 537.038 42.056C536.318 43.496 535.958 45.104 535.958 46.88V66.176C535.958 67.184 536.102 67.904 536.39 68.336C536.726 68.768 537.398 69.032 538.406 69.128L540.35 69.344C540.878 69.44 541.142 69.704 541.142 70.136C541.142 70.712 540.782 71 540.062 71H527.894Z" fill="white"/>
</svg>
