<svg width="536" height="94" viewBox="0 0 536 94" fill="none" xmlns="http://www.w3.org/2000/svg">
<path d="M32.4 71.72C32.208 71.72 32.016 71.648 31.824 71.504C31.632 71.36 31.488 71.048 31.392 70.568L25.848 48.248C25.8 47.864 25.656 47.696 25.416 47.744C25.176 47.744 25.008 47.912 24.912 48.248L18.72 70.568C18.576 71.048 18.408 71.36 18.216 71.504C18.072 71.648 17.904 71.72 17.712 71.72C17.52 71.72 17.304 71.648 17.064 71.504C16.872 71.36 16.728 71.048 16.632 70.568L5.25601 24.92C4.92001 23.576 4.53601 22.64 4.10401 22.112C3.72001 21.584 3.04801 21.224 2.08801 21.032L1.00801 20.816C0.336005 20.672 5.1707e-06 20.36 5.1707e-06 19.88C5.1707e-06 19.4 0.360005 19.16 1.08001 19.16H12.672C13.344 19.16 13.68 19.424 13.68 19.952C13.68 20.384 13.32 20.672 12.6 20.816L11.808 20.96C10.992 21.104 10.464 21.392 10.224 21.824C10.032 22.208 10.056 22.928 10.296 23.984L18.792 59.12C18.888 59.456 19.032 59.624 19.224 59.624C19.464 59.624 19.632 59.456 19.728 59.12L22.968 47.384C23.496 45.56 23.76 43.88 23.76 42.344C23.76 40.808 23.52 39.104 23.04 37.232L20.016 24.92C19.68 23.576 19.344 22.616 19.008 22.04C18.72 21.464 18.312 21.128 17.784 21.032L16.704 20.816C16.032 20.672 15.696 20.36 15.696 19.88C15.696 19.4 16.056 19.16 16.776 19.16H26.64C27.312 19.16 27.648 19.424 27.648 19.952C27.648 20.384 27.288 20.672 26.568 20.816L25.776 20.96C25.152 21.056 24.768 21.32 24.624 21.752C24.528 22.184 24.6 22.928 24.84 23.984L27.288 34.28C27.384 34.616 27.528 34.784 27.72 34.784C27.96 34.784 28.128 34.616 28.224 34.28L30.816 25.496C31.344 23.672 31.536 22.472 31.392 21.896C31.296 21.32 31.032 21.008 30.6 20.96L29.808 20.816C29.088 20.672 28.728 20.384 28.728 19.952C28.728 19.424 29.064 19.16 29.736 19.16H36.576C37.392 19.16 37.8 19.424 37.8 19.952C37.8 20.432 37.392 20.72 36.576 20.816L35.784 20.888C35.16 20.936 34.632 21.32 34.2 22.04C33.816 22.76 33.384 23.936 32.904 25.568L30.168 35C29.64 36.776 29.352 38.456 29.304 40.04C29.304 41.576 29.52 43.28 29.952 45.152L33.192 58.688C33.288 59.024 33.432 59.192 33.624 59.192C33.864 59.192 34.008 59.024 34.056 58.688L42.336 25.496C43.008 22.712 42.576 21.2 41.04 20.96L40.248 20.816C39.528 20.672 39.168 20.36 39.168 19.88C39.168 19.4 39.504 19.16 40.176 19.16H48.24C49.056 19.16 49.464 19.424 49.464 19.952C49.464 20.432 49.056 20.72 48.24 20.816L47.448 20.888C46.824 20.936 46.272 21.32 45.792 22.04C45.36 22.712 44.952 23.888 44.568 25.568L33.408 70.568C33.312 71.048 33.168 71.36 32.976 71.504C32.784 71.648 32.592 71.72 32.4 71.72ZM54.7088 71.648C52.4048 71.648 50.3408 70.88 48.5168 69.344C46.6928 67.808 45.2288 65.648 44.1248 62.864C43.0688 60.032 42.5408 56.768 42.5408 53.072C42.5408 49.28 43.0928 45.944 44.1968 43.064C45.3008 40.184 46.8128 37.928 48.7328 36.296C50.6528 34.664 52.7888 33.848 55.1408 33.848C57.9728 33.848 60.2528 35.024 61.9808 37.376C63.7568 39.68 64.6448 43.448 64.6448 48.68C64.6448 50.264 64.0448 51.056 62.8448 51.056H49.1648C48.2048 51.056 47.7248 51.608 47.7248 52.712C47.7248 57.8 48.4688 61.616 49.9568 64.16C51.4448 66.704 53.3408 67.976 55.6448 67.976C57.4688 67.976 58.9568 67.328 60.1088 66.032C61.2608 64.736 62.1968 62.552 62.9168 59.48C63.0608 58.952 63.3728 58.688 63.8528 58.688C64.4288 58.688 64.6448 59.168 64.5008 60.128C63.7328 64.4 62.5088 67.4 60.8288 69.128C59.1488 70.808 57.1088 71.648 54.7088 71.648ZM48.9488 49.256H56.2208C58.5248 49.256 59.6768 48.056 59.6768 45.656C59.6768 42.536 59.2928 40.088 58.5248 38.312C57.7568 36.536 56.6048 35.648 55.0688 35.648C53.1968 35.648 51.6128 36.728 50.3168 38.888C49.0688 41.048 48.2528 44.12 47.8688 48.104C47.7728 48.872 48.1328 49.256 48.9488 49.256ZM78.4305 71.648C76.4625 71.648 74.5665 71.024 72.7425 69.776C71.6865 69.056 70.7265 69.248 69.8625 70.352C69.3825 70.88 69.0225 71.216 68.7825 71.36C68.5425 71.552 68.3025 71.648 68.0625 71.648C67.5345 71.648 67.3425 71.312 67.4865 70.64C67.6785 69.536 67.8225 68.12 67.9185 66.392C68.0145 64.664 68.0625 62.36 68.0625 59.48V24.92C68.0625 24.056 67.9185 23.48 67.6305 23.192C67.3905 22.856 66.9345 22.64 66.2625 22.544L64.7505 22.328C64.2225 22.232 63.9585 21.944 63.9585 21.464C63.9585 20.984 64.2225 20.696 64.7505 20.6C66.0945 20.312 67.2225 19.976 68.1345 19.592C69.0465 19.208 69.8145 18.824 70.4385 18.44C71.2065 17.96 71.7825 17.72 72.1665 17.72C72.6945 17.72 72.9585 18.104 72.9585 18.872V36.656C72.9585 37.04 73.1025 37.304 73.3905 37.448C73.7265 37.544 74.0865 37.4 74.4705 37.016C76.5345 34.904 78.7905 33.848 81.2385 33.848C83.4465 33.848 85.3905 34.592 87.0705 36.08C88.7985 37.52 90.1425 39.536 91.1025 42.128C92.1105 44.72 92.6145 47.768 92.6145 51.272C92.6145 55.256 91.9905 58.784 90.7425 61.856C89.4945 64.928 87.7905 67.328 85.6305 69.056C83.5185 70.784 81.1185 71.648 78.4305 71.648ZM78.2865 69.848C80.9745 69.848 83.1345 68.264 84.7665 65.096C86.4465 61.928 87.2865 57.656 87.2865 52.28C87.2865 47.336 86.5665 43.568 85.1265 40.976C83.6865 38.384 81.6465 37.088 79.0065 37.088C77.3745 37.088 75.9585 37.76 74.7585 39.104C73.5585 40.448 72.9585 42.32 72.9585 44.72V62.864C72.9585 65.024 73.4385 66.728 74.3985 67.976C75.4065 69.224 76.7025 69.848 78.2865 69.848ZM102.072 71.648C100.968 71.648 99.7924 71.504 98.5444 71.216C97.2964 70.976 96.2884 70.664 95.5204 70.28C95.0884 70.04 94.8724 69.632 94.8724 69.056L94.6564 60.992C94.6564 60.176 94.9684 59.768 95.5924 59.768C96.1204 59.768 96.4804 60.152 96.6724 60.92C97.4884 64.328 98.4724 66.656 99.6244 67.904C100.824 69.152 102.264 69.776 103.944 69.776C105.336 69.776 106.488 69.248 107.4 68.192C108.312 67.088 108.768 65.576 108.768 63.656C108.768 61.736 108.24 60.032 107.184 58.544C106.128 57.056 104.352 55.424 101.856 53.648C99.3604 51.968 97.5364 50.288 96.3844 48.608C95.2324 46.88 94.6564 45.008 94.6564 42.992C94.6564 40.256 95.6164 38.048 97.5364 36.368C99.4564 34.688 102 33.848 105.168 33.848C106.128 33.848 107.064 33.968 107.976 34.208C108.888 34.4 109.704 34.736 110.424 35.216C110.856 35.504 111.072 35.888 111.072 36.368L111.216 44.288C111.216 45.008 110.928 45.368 110.352 45.368C110.016 45.368 109.776 45.272 109.632 45.08C109.488 44.84 109.368 44.552 109.272 44.216C108.312 41.096 107.352 38.936 106.392 37.736C105.432 36.488 104.256 35.864 102.864 35.864C101.616 35.864 100.584 36.296 99.7684 37.16C98.9524 38.024 98.5444 39.104 98.5444 40.4C98.5444 42.08 99.0484 43.544 100.056 44.792C101.064 46.04 102.888 47.576 105.528 49.4C107.928 51.128 109.728 53 110.928 55.016C112.176 56.984 112.8 59.144 112.8 61.496C112.8 64.568 111.816 67.04 109.848 68.912C107.88 70.736 105.288 71.648 102.072 71.648ZM120.117 27.44C119.109 27.44 118.245 27.08 117.525 26.36C116.853 25.64 116.517 24.728 116.517 23.624C116.517 22.52 116.853 21.632 117.525 20.96C118.245 20.24 119.109 19.88 120.117 19.88C121.125 19.88 121.965 20.24 122.637 20.96C123.309 21.632 123.645 22.52 123.645 23.624C123.645 24.728 123.309 25.64 122.637 26.36C121.965 27.08 121.125 27.44 120.117 27.44ZM114.069 71C113.349 71 112.989 70.736 112.989 70.208C112.989 69.776 113.301 69.488 113.925 69.344L114.789 69.2C115.989 69.008 116.757 68.72 117.093 68.336C117.429 67.904 117.597 67.184 117.597 66.176V41.984C117.597 41.12 117.453 40.544 117.165 40.256C116.925 39.92 116.469 39.704 115.797 39.608L114.285 39.392C113.661 39.344 113.349 39.08 113.349 38.6C113.349 38.216 113.733 37.952 114.501 37.808C115.989 37.568 117.189 37.184 118.101 36.656C119.013 36.128 119.901 35.48 120.765 34.712C121.197 34.28 121.557 34.064 121.845 34.064C122.277 34.064 122.493 34.352 122.493 34.928V66.176C122.493 67.184 122.637 67.904 122.925 68.336C123.213 68.768 123.765 69.032 124.581 69.128L126.381 69.344C126.909 69.44 127.173 69.704 127.173 70.136C127.173 70.712 126.813 71 126.093 71H114.069ZM135.644 71.648C133.964 71.648 132.572 71.072 131.468 69.92C130.412 68.72 129.884 66.776 129.884 64.088V37.16C129.884 36.584 129.596 36.296 129.02 36.296H126.932C126.164 36.296 125.78 36.008 125.78 35.432C125.78 35.048 125.996 34.712 126.428 34.424C128.012 33.32 129.284 32.144 130.244 30.896C131.204 29.6 132.044 27.848 132.764 25.64C133.1 24.632 133.508 24.128 133.988 24.128C134.516 24.128 134.78 24.512 134.78 25.28V33.272C134.78 33.944 135.116 34.28 135.788 34.28H140.468C141.236 34.28 141.62 34.616 141.62 35.288C141.62 35.96 141.236 36.296 140.468 36.296H135.788C135.116 36.296 134.78 36.632 134.78 37.304V64.16C134.78 65.216 134.948 66.056 135.284 66.68C135.62 67.256 136.244 67.544 137.156 67.544C138.164 67.544 138.98 67.04 139.604 66.032C140.276 65.024 140.708 63.392 140.9 61.136C140.996 60.464 141.308 60.128 141.836 60.128C142.412 60.128 142.7 60.488 142.7 61.208C142.556 64.904 141.788 67.568 140.396 69.2C139.052 70.832 137.468 71.648 135.644 71.648ZM154.637 71.648C152.333 71.648 150.269 70.88 148.445 69.344C146.621 67.808 145.157 65.648 144.053 62.864C142.997 60.032 142.469 56.768 142.469 53.072C142.469 49.28 143.021 45.944 144.125 43.064C145.229 40.184 146.741 37.928 148.661 36.296C150.581 34.664 152.717 33.848 155.069 33.848C157.901 33.848 160.181 35.024 161.909 37.376C163.685 39.68 164.573 43.448 164.573 48.68C164.573 50.264 163.973 51.056 162.773 51.056H149.093C148.133 51.056 147.653 51.608 147.653 52.712C147.653 57.8 148.397 61.616 149.885 64.16C151.373 66.704 153.269 67.976 155.573 67.976C157.397 67.976 158.885 67.328 160.037 66.032C161.189 64.736 162.125 62.552 162.845 59.48C162.989 58.952 163.301 58.688 163.781 58.688C164.357 58.688 164.573 59.168 164.429 60.128C163.661 64.4 162.437 67.4 160.757 69.128C159.077 70.808 157.037 71.648 154.637 71.648ZM148.877 49.256H156.149C158.453 49.256 159.605 48.056 159.605 45.656C159.605 42.536 159.221 40.088 158.453 38.312C157.685 36.536 156.533 35.648 154.997 35.648C153.125 35.648 151.541 36.728 150.245 38.888C148.997 41.048 148.181 44.12 147.797 48.104C147.701 48.872 148.061 49.256 148.877 49.256Z" fill="white"/>
<path d="M187.888 71.648C184.336 71.648 181.216 70.544 178.528 68.336C175.888 66.128 173.824 63.032 172.336 59.048C170.896 55.016 170.176 50.264 170.176 44.792C170.176 39.512 170.968 34.904 172.552 30.968C174.184 26.984 176.344 23.912 179.032 21.752C181.768 19.544 184.792 18.44 188.104 18.44C190.072 18.44 191.8 18.632 193.288 19.016C194.776 19.352 196.096 19.808 197.248 20.384C197.824 20.72 198.112 21.224 198.112 21.896L198.328 32.84C198.328 33.656 198.04 34.064 197.464 34.064C196.936 34.064 196.6 33.752 196.456 33.128L195.736 30.464C194.728 26.72 193.552 24.128 192.208 22.688C190.912 21.248 189.352 20.528 187.528 20.528C184.168 20.528 181.36 22.616 179.104 26.792C176.896 30.92 175.792 36.92 175.792 44.792C175.792 50.168 176.344 54.704 177.448 58.4C178.6 62.096 180.064 64.88 181.84 66.752C183.664 68.624 185.584 69.56 187.6 69.56C189.76 69.56 191.488 68.888 192.784 67.544C194.128 66.2 195.256 63.608 196.168 59.768L197.032 56.24C197.176 55.52 197.56 55.208 198.184 55.304C198.712 55.4 198.976 55.808 198.976 56.528L198.688 68.192C198.688 68.864 198.376 69.368 197.752 69.704C196.6 70.28 195.232 70.736 193.648 71.072C192.112 71.456 190.192 71.648 187.888 71.648ZM210.098 38.888C212.066 35.528 214.442 33.848 217.226 33.848C218.81 33.848 219.986 34.328 220.754 35.288C221.522 36.2 221.906 37.232 221.906 38.384C221.906 39.296 221.666 40.04 221.186 40.616C220.754 41.192 220.058 41.48 219.098 41.48C218.33 41.48 217.754 41.312 217.37 40.976C217.034 40.592 216.746 40.16 216.506 39.68C216.314 39.2 216.074 38.792 215.786 38.456C215.498 38.072 215.018 37.88 214.346 37.88C213.482 37.88 212.666 38.408 211.898 39.464C211.13 40.472 210.482 41.84 209.954 43.568C209.474 45.296 209.234 47.264 209.234 49.472V66.176C209.234 67.184 209.378 67.904 209.666 68.336C210.002 68.768 210.674 69.032 211.682 69.128L213.626 69.344C214.154 69.44 214.418 69.704 214.418 70.136C214.418 70.712 214.058 71 213.338 71H201.17C200.45 71 200.09 70.736 200.09 70.208C200.09 69.776 200.402 69.488 201.026 69.344L201.89 69.2C202.898 69.008 203.546 68.72 203.834 68.336C204.17 67.904 204.338 67.184 204.338 66.176V41.984C204.338 41.12 204.194 40.544 203.906 40.256C203.666 39.92 203.21 39.704 202.538 39.608L201.026 39.392C200.402 39.344 200.09 39.08 200.09 38.6C200.09 38.216 200.474 37.952 201.242 37.808C202.73 37.568 203.858 37.184 204.626 36.656C205.442 36.128 206.282 35.48 207.146 34.712C207.578 34.28 207.938 34.064 208.226 34.064C208.658 34.064 208.874 34.352 208.874 34.928V38.816C208.874 39.152 209.018 39.368 209.306 39.464C209.594 39.512 209.858 39.32 210.098 38.888ZM232.876 71.648C230.572 71.648 228.508 70.88 226.684 69.344C224.86 67.808 223.396 65.648 222.292 62.864C221.236 60.032 220.708 56.768 220.708 53.072C220.708 49.28 221.26 45.944 222.364 43.064C223.468 40.184 224.98 37.928 226.9 36.296C228.82 34.664 230.956 33.848 233.308 33.848C236.14 33.848 238.42 35.024 240.148 37.376C241.924 39.68 242.812 43.448 242.812 48.68C242.812 50.264 242.212 51.056 241.012 51.056H227.332C226.372 51.056 225.892 51.608 225.892 52.712C225.892 57.8 226.636 61.616 228.124 64.16C229.612 66.704 231.508 67.976 233.812 67.976C235.636 67.976 237.124 67.328 238.276 66.032C239.428 64.736 240.364 62.552 241.084 59.48C241.228 58.952 241.54 58.688 242.02 58.688C242.596 58.688 242.812 59.168 242.668 60.128C241.9 64.4 240.676 67.4 238.996 69.128C237.316 70.808 235.276 71.648 232.876 71.648ZM227.116 49.256H234.388C236.692 49.256 237.844 48.056 237.844 45.656C237.844 42.536 237.46 40.088 236.692 38.312C235.924 36.536 234.772 35.648 233.236 35.648C231.364 35.648 229.78 36.728 228.484 38.888C227.236 41.048 226.42 44.12 226.036 48.104C225.94 48.872 226.3 49.256 227.116 49.256ZM254.797 71.648C252.685 71.648 250.789 70.928 249.109 69.488C247.477 68 246.205 65.96 245.293 63.368C244.381 60.728 243.925 57.68 243.925 54.224C243.925 50.192 244.549 46.664 245.797 43.64C247.045 40.568 248.773 38.168 250.981 36.44C253.189 34.712 255.685 33.848 258.469 33.848C259.141 33.848 259.813 33.92 260.485 34.064C261.157 34.16 261.805 34.352 262.429 34.64C263.197 35.024 263.581 34.856 263.581 34.136V24.92C263.581 24.056 263.437 23.456 263.149 23.12C262.909 22.784 262.453 22.592 261.781 22.544L259.909 22.328C259.381 22.232 259.117 21.944 259.117 21.464C259.117 20.984 259.381 20.696 259.909 20.6C261.445 20.312 262.669 19.976 263.581 19.592C264.541 19.208 265.333 18.824 265.957 18.44C266.725 17.96 267.301 17.72 267.685 17.72C268.213 17.72 268.477 18.104 268.477 18.872V64.16C268.477 66.176 268.981 67.184 269.989 67.184C270.613 67.184 271.189 66.776 271.717 65.96C272.245 65.096 272.509 63.656 272.509 61.64C272.509 60.872 272.821 60.488 273.445 60.488C274.021 60.488 274.309 60.896 274.309 61.712C274.309 65.216 273.709 67.76 272.509 69.344C271.309 70.88 269.941 71.648 268.405 71.648C267.013 71.648 265.957 71.192 265.237 70.28C264.517 69.32 264.037 68.192 263.797 66.896C263.749 66.512 263.581 66.32 263.293 66.32C263.005 66.272 262.741 66.44 262.501 66.824C261.157 68.696 259.933 69.968 258.829 70.64C257.725 71.312 256.381 71.648 254.797 71.648ZM256.381 68.336C257.629 68.336 258.781 67.928 259.837 67.112C260.941 66.248 261.829 65.096 262.501 63.656C263.221 62.216 263.581 60.608 263.581 58.832V42.632C263.581 40.472 263.077 38.768 262.069 37.52C261.109 36.272 259.837 35.648 258.253 35.648C255.565 35.648 253.381 37.232 251.701 40.4C250.069 43.52 249.253 47.792 249.253 53.216C249.253 58.16 249.877 61.928 251.125 64.52C252.421 67.064 254.173 68.336 256.381 68.336ZM280 27.44C278.992 27.44 278.128 27.08 277.408 26.36C276.736 25.64 276.4 24.728 276.4 23.624C276.4 22.52 276.736 21.632 277.408 20.96C278.128 20.24 278.992 19.88 280 19.88C281.008 19.88 281.848 20.24 282.52 20.96C283.192 21.632 283.528 22.52 283.528 23.624C283.528 24.728 283.192 25.64 282.52 26.36C281.848 27.08 281.008 27.44 280 27.44ZM273.952 71C273.232 71 272.872 70.736 272.872 70.208C272.872 69.776 273.184 69.488 273.808 69.344L274.672 69.2C275.872 69.008 276.64 68.72 276.976 68.336C277.312 67.904 277.48 67.184 277.48 66.176V41.984C277.48 41.12 277.336 40.544 277.048 40.256C276.808 39.92 276.352 39.704 275.68 39.608L274.168 39.392C273.544 39.344 273.232 39.08 273.232 38.6C273.232 38.216 273.616 37.952 274.384 37.808C275.872 37.568 277.072 37.184 277.984 36.656C278.896 36.128 279.784 35.48 280.648 34.712C281.08 34.28 281.44 34.064 281.728 34.064C282.16 34.064 282.376 34.352 282.376 34.928V66.176C282.376 67.184 282.52 67.904 282.808 68.336C283.096 68.768 283.648 69.032 284.464 69.128L286.264 69.344C286.792 69.44 287.056 69.704 287.056 70.136C287.056 70.712 286.696 71 285.976 71H273.952ZM295.527 71.648C293.847 71.648 292.455 71.072 291.351 69.92C290.295 68.72 289.767 66.776 289.767 64.088V37.16C289.767 36.584 289.479 36.296 288.903 36.296H286.815C286.047 36.296 285.663 36.008 285.663 35.432C285.663 35.048 285.879 34.712 286.311 34.424C287.895 33.32 289.167 32.144 290.127 30.896C291.087 29.6 291.927 27.848 292.647 25.64C292.983 24.632 293.391 24.128 293.871 24.128C294.399 24.128 294.663 24.512 294.663 25.28V33.272C294.663 33.944 294.999 34.28 295.671 34.28H300.351C301.119 34.28 301.503 34.616 301.503 35.288C301.503 35.96 301.119 36.296 300.351 36.296H295.671C294.999 36.296 294.663 36.632 294.663 37.304V64.16C294.663 65.216 294.831 66.056 295.167 66.68C295.503 67.256 296.127 67.544 297.039 67.544C298.047 67.544 298.863 67.04 299.487 66.032C300.159 65.024 300.591 63.392 300.783 61.136C300.879 60.464 301.191 60.128 301.719 60.128C302.295 60.128 302.583 60.488 302.583 61.208C302.439 64.904 301.671 67.568 300.279 69.2C298.935 70.832 297.351 71.648 295.527 71.648Z" fill="white"/>
<path d="M317.544 71.648C316.584 71.648 315.504 71.552 314.304 71.36C313.152 71.168 312.048 70.928 310.992 70.64C309.984 70.352 309.192 70.04 308.616 69.704C308.28 69.512 308.016 69.32 307.824 69.128C307.68 68.888 307.608 68.504 307.608 67.976L307.248 56.672C307.248 55.712 307.56 55.232 308.184 55.232C308.712 55.232 309.072 55.664 309.264 56.528L309.912 59.264C311.544 66.128 314.592 69.56 319.056 69.56C321.456 69.56 323.352 68.768 324.744 67.184C326.184 65.552 326.904 63.272 326.904 60.344C326.904 57.512 326.16 54.872 324.672 52.424C323.232 49.976 320.904 47.552 317.688 45.152C314.136 42.608 311.544 40.16 309.912 37.808C308.28 35.408 307.464 32.864 307.464 30.176C307.464 26.624 308.688 23.792 311.136 21.68C313.632 19.52 316.8 18.44 320.64 18.44C322.08 18.44 323.472 18.608 324.816 18.944C326.16 19.28 327.264 19.76 328.128 20.384C328.416 20.576 328.632 20.792 328.776 21.032C328.968 21.272 329.064 21.584 329.064 21.968L329.28 32.84C329.28 33.656 328.968 34.064 328.344 34.064C327.912 34.064 327.6 33.728 327.408 33.056L326.904 31.256C325.848 27.56 324.744 24.872 323.592 23.192C322.488 21.464 320.88 20.6 318.768 20.6C316.704 20.6 315.048 21.272 313.8 22.616C312.6 23.96 312 25.856 312 28.304C312 30.368 312.672 32.336 314.016 34.208C315.36 36.08 317.712 38.36 321.072 41.048C324.672 43.976 327.288 46.808 328.92 49.544C330.6 52.232 331.44 55.112 331.44 58.184C331.44 60.872 330.84 63.224 329.64 65.24C328.44 67.256 326.784 68.84 324.672 69.992C322.608 71.096 320.232 71.648 317.544 71.648ZM343.696 71.648C341.584 71.648 339.664 70.952 337.936 69.56C336.256 68.12 334.912 66.08 333.904 63.44C332.896 60.8 332.392 57.656 332.392 54.008C332.392 49.928 332.992 46.376 334.192 43.352C335.44 40.328 337.12 38 339.232 36.368C341.344 34.688 343.696 33.848 346.288 33.848C348.496 33.848 350.224 34.28 351.472 35.144C351.952 35.48 352.192 36.008 352.192 36.728L352.336 45.512C352.336 46.232 352.048 46.592 351.472 46.592C350.944 46.592 350.608 46.28 350.464 45.656C349.792 43.016 349.144 40.976 348.52 39.536C347.896 38.096 347.248 37.112 346.576 36.584C345.904 36.008 345.16 35.72 344.344 35.72C343.384 35.72 342.376 36.272 341.32 37.376C340.312 38.48 339.448 40.28 338.728 42.776C338.056 45.224 337.72 48.464 337.72 52.496C337.72 57.632 338.368 61.496 339.664 64.088C341.008 66.68 342.736 67.976 344.848 67.976C346.528 67.976 347.92 67.28 349.024 65.888C350.176 64.496 351.16 61.976 351.976 58.328C352.12 57.8 352.408 57.536 352.84 57.536C353.416 57.536 353.632 58.016 353.488 58.976C352.96 62.336 352.216 64.952 351.256 66.824C350.344 68.648 349.24 69.92 347.944 70.64C346.696 71.312 345.28 71.648 343.696 71.648ZM366.871 71.648C364.423 71.648 362.215 70.832 360.247 69.2C358.327 67.52 356.791 65.24 355.639 62.36C354.487 59.48 353.911 56.264 353.911 52.712C353.911 49.16 354.487 45.968 355.639 43.136C356.791 40.304 358.351 38.048 360.319 36.368C362.287 34.688 364.471 33.848 366.871 33.848C369.319 33.848 371.503 34.688 373.423 36.368C375.391 38.048 376.951 40.304 378.103 43.136C379.255 45.968 379.831 49.16 379.831 52.712C379.831 56.264 379.255 59.48 378.103 62.36C376.999 65.24 375.463 67.52 373.495 69.2C371.527 70.832 369.319 71.648 366.871 71.648ZM366.871 69.848C371.863 69.848 374.359 64.136 374.359 52.712C374.359 41.336 371.863 35.648 366.871 35.648C361.879 35.648 359.383 41.336 359.383 52.712C359.383 64.136 361.879 69.848 366.871 69.848ZM389.853 38.888C391.821 35.528 394.197 33.848 396.981 33.848C398.565 33.848 399.741 34.328 400.509 35.288C401.277 36.2 401.661 37.232 401.661 38.384C401.661 39.296 401.421 40.04 400.941 40.616C400.509 41.192 399.813 41.48 398.853 41.48C398.085 41.48 397.509 41.312 397.125 40.976C396.789 40.592 396.501 40.16 396.261 39.68C396.069 39.2 395.829 38.792 395.541 38.456C395.253 38.072 394.773 37.88 394.101 37.88C393.237 37.88 392.421 38.408 391.653 39.464C390.885 40.472 390.237 41.84 389.709 43.568C389.229 45.296 388.989 47.264 388.989 49.472V66.176C388.989 67.184 389.133 67.904 389.421 68.336C389.757 68.768 390.429 69.032 391.437 69.128L393.381 69.344C393.909 69.44 394.173 69.704 394.173 70.136C394.173 70.712 393.813 71 393.093 71H380.925C380.205 71 379.845 70.736 379.845 70.208C379.845 69.776 380.157 69.488 380.781 69.344L381.645 69.2C382.653 69.008 383.301 68.72 383.589 68.336C383.925 67.904 384.093 67.184 384.093 66.176V41.984C384.093 41.12 383.949 40.544 383.661 40.256C383.421 39.92 382.965 39.704 382.293 39.608L380.781 39.392C380.157 39.344 379.845 39.08 379.845 38.6C379.845 38.216 380.229 37.952 380.997 37.808C382.485 37.568 383.613 37.184 384.381 36.656C385.197 36.128 386.037 35.48 386.901 34.712C387.333 34.28 387.693 34.064 387.981 34.064C388.413 34.064 388.629 34.352 388.629 34.928V38.816C388.629 39.152 388.773 39.368 389.061 39.464C389.349 39.512 389.613 39.32 389.853 38.888ZM412.631 71.648C410.327 71.648 408.263 70.88 406.439 69.344C404.615 67.808 403.151 65.648 402.047 62.864C400.991 60.032 400.463 56.768 400.463 53.072C400.463 49.28 401.015 45.944 402.119 43.064C403.223 40.184 404.735 37.928 406.655 36.296C408.575 34.664 410.711 33.848 413.063 33.848C415.895 33.848 418.175 35.024 419.903 37.376C421.679 39.68 422.567 43.448 422.567 48.68C422.567 50.264 421.967 51.056 420.767 51.056H407.087C406.127 51.056 405.647 51.608 405.647 52.712C405.647 57.8 406.391 61.616 407.879 64.16C409.367 66.704 411.263 67.976 413.567 67.976C415.391 67.976 416.879 67.328 418.031 66.032C419.183 64.736 420.119 62.552 420.839 59.48C420.983 58.952 421.295 58.688 421.775 58.688C422.351 58.688 422.567 59.168 422.423 60.128C421.655 64.4 420.431 67.4 418.751 69.128C417.071 70.808 415.031 71.648 412.631 71.648ZM406.871 49.256H414.143C416.447 49.256 417.599 48.056 417.599 45.656C417.599 42.536 417.215 40.088 416.447 38.312C415.679 36.536 414.527 35.648 412.991 35.648C411.119 35.648 409.535 36.728 408.239 38.888C406.991 41.048 406.175 44.12 405.791 48.104C405.695 48.872 406.055 49.256 406.871 49.256Z" fill="white"/>
<path d="M433 71.648C431.944 71.648 431.032 71.312 430.264 70.64C429.544 69.92 429.184 68.984 429.184 67.832C429.184 66.728 429.544 65.84 430.264 65.168C431.032 64.448 431.944 64.088 433 64.088C433.96 64.088 434.824 64.448 435.592 65.168C436.36 65.84 436.744 66.728 436.744 67.832C436.744 68.984 436.36 69.92 435.592 70.64C434.824 71.312 433.96 71.648 433 71.648ZM448.665 71.648C446.553 71.648 444.633 70.952 442.905 69.56C441.225 68.12 439.881 66.08 438.873 63.44C437.865 60.8 437.361 57.656 437.361 54.008C437.361 49.928 437.961 46.376 439.161 43.352C440.409 40.328 442.089 38 444.201 36.368C446.313 34.688 448.665 33.848 451.257 33.848C453.465 33.848 455.193 34.28 456.441 35.144C456.921 35.48 457.161 36.008 457.161 36.728L457.305 45.512C457.305 46.232 457.017 46.592 456.441 46.592C455.913 46.592 455.577 46.28 455.433 45.656C454.761 43.016 454.113 40.976 453.489 39.536C452.865 38.096 452.217 37.112 451.545 36.584C450.873 36.008 450.129 35.72 449.313 35.72C448.353 35.72 447.345 36.272 446.289 37.376C445.281 38.48 444.417 40.28 443.697 42.776C443.025 45.224 442.689 48.464 442.689 52.496C442.689 57.632 443.337 61.496 444.633 64.088C445.977 66.68 447.705 67.976 449.817 67.976C451.497 67.976 452.889 67.28 453.993 65.888C455.145 64.496 456.129 61.976 456.945 58.328C457.089 57.8 457.377 57.536 457.809 57.536C458.385 57.536 458.601 58.016 458.457 58.976C457.929 62.336 457.185 64.952 456.225 66.824C455.313 68.648 454.209 69.92 452.913 70.64C451.665 71.312 450.249 71.648 448.665 71.648ZM471.84 71.648C469.392 71.648 467.184 70.832 465.216 69.2C463.296 67.52 461.76 65.24 460.608 62.36C459.456 59.48 458.88 56.264 458.88 52.712C458.88 49.16 459.456 45.968 460.608 43.136C461.76 40.304 463.32 38.048 465.288 36.368C467.256 34.688 469.44 33.848 471.84 33.848C474.288 33.848 476.472 34.688 478.392 36.368C480.36 38.048 481.92 40.304 483.072 43.136C484.224 45.968 484.8 49.16 484.8 52.712C484.8 56.264 484.224 59.48 483.072 62.36C481.968 65.24 480.432 67.52 478.464 69.2C476.496 70.832 474.288 71.648 471.84 71.648ZM471.84 69.848C476.832 69.848 479.328 64.136 479.328 52.712C479.328 41.336 476.832 35.648 471.84 35.648C466.848 35.648 464.352 41.336 464.352 52.712C464.352 64.136 466.848 69.848 471.84 69.848ZM485.894 71C485.174 71 484.814 70.736 484.814 70.208C484.814 69.776 485.126 69.488 485.75 69.344L486.614 69.2C487.622 69.008 488.27 68.72 488.558 68.336C488.894 67.904 489.062 67.184 489.062 66.176V41.984C489.062 41.12 488.918 40.544 488.63 40.256C488.39 39.92 487.934 39.704 487.262 39.608L485.75 39.392C485.126 39.344 484.814 39.08 484.814 38.6C484.814 38.216 485.198 37.952 485.966 37.808C487.454 37.568 488.582 37.184 489.35 36.656C490.166 36.128 491.006 35.48 491.87 34.712C492.302 34.28 492.662 34.064 492.95 34.064C493.382 34.064 493.598 34.352 493.598 34.928V38.168C493.598 38.504 493.742 38.768 494.03 38.96C494.318 39.104 494.63 39.008 494.966 38.672C496.934 36.8 498.638 35.528 500.078 34.856C501.566 34.184 503.054 33.848 504.542 33.848C505.934 33.848 507.158 34.232 508.214 35C509.318 35.72 510.134 36.824 510.662 38.312C510.806 38.696 511.046 38.936 511.382 39.032C511.766 39.08 512.126 38.936 512.462 38.6C514.43 36.776 516.134 35.528 517.574 34.856C519.014 34.184 520.478 33.848 521.966 33.848C523.982 33.848 525.614 34.616 526.862 36.152C528.158 37.64 528.806 39.848 528.806 42.776V66.176C528.806 67.184 528.95 67.904 529.238 68.336C529.574 68.72 530.246 68.984 531.254 69.128L532.838 69.344C533.366 69.44 533.63 69.728 533.63 70.208C533.63 70.736 533.342 71 532.766 71H520.454C519.782 71 519.446 70.736 519.446 70.208C519.446 69.728 519.71 69.44 520.238 69.344L521.246 69.2C522.35 69.056 523.07 68.768 523.406 68.336C523.742 67.904 523.91 67.184 523.91 66.176V43.568C523.91 41.216 523.478 39.56 522.614 38.6C521.798 37.64 520.67 37.16 519.23 37.16C517.79 37.16 516.47 37.616 515.27 38.528C514.118 39.392 513.182 40.568 512.462 42.056C511.742 43.496 511.382 45.104 511.382 46.88V66.176C511.382 67.184 511.55 67.904 511.886 68.336C512.222 68.72 512.918 68.984 513.974 69.128L515.558 69.344C516.086 69.44 516.35 69.728 516.35 70.208C516.35 70.736 516.062 71 515.486 71H503.246C502.574 71 502.238 70.736 502.238 70.208C502.238 69.728 502.502 69.44 503.03 69.344L504.038 69.2C505.046 69.056 505.694 68.768 505.982 68.336C506.318 67.904 506.486 67.184 506.486 66.176V43.568C506.486 41.216 506.054 39.56 505.19 38.6C504.374 37.64 503.246 37.16 501.806 37.16C500.366 37.16 499.046 37.616 497.846 38.528C496.694 39.392 495.758 40.568 495.038 42.056C494.318 43.496 493.958 45.104 493.958 46.88V66.176C493.958 67.184 494.102 67.904 494.39 68.336C494.726 68.768 495.398 69.032 496.406 69.128L498.35 69.344C498.878 69.44 499.142 69.704 499.142 70.136C499.142 70.712 498.782 71 498.062 71H485.894Z" fill="white"/>
</svg>
