<svg width="1440" height="900" viewBox="0 0 1440 900" fill="none" xmlns="http://www.w3.org/2000/svg">
  <rect width="1440" height="900" rx="40" fill="#07151E"/>
  <rect x="44" y="40" width="1352" height="72" rx="28" fill="#0F2533"/>
  <rect x="84" y="63" width="200" height="26" rx="13" fill="#71E1FF"/>
  <rect x="1088" y="58" width="226" height="34" rx="17" fill="#71E1FF"/>
  <rect x="64" y="146" width="1312" height="310" rx="38" fill="#0C1E2A"/>
  <rect x="110" y="206" width="510" height="42" rx="21" fill="#F5FAFD"/>
  <rect x="110" y="270" width="602" height="22" rx="11" fill="#8BB4C7"/>
  <rect x="110" y="306" width="560" height="22" rx="11" fill="#8BB4C7"/>
  <rect x="110" y="358" width="232" height="52" rx="26" fill="#71E1FF"/>
  <rect x="826" y="176" width="500" height="236" rx="34" fill="#102636"/>
  <circle cx="1076" cy="294" r="86" fill="#71E1FF" fill-opacity="0.22"/>
  <rect x="64" y="490" width="620" height="330" rx="34" fill="#0F2533"/>
  <rect x="720" y="490" width="656" height="330" rx="34" fill="#0F2533"/>
  <rect x="108" y="540" width="300" height="22" rx="11" fill="#F5FAFD"/>
  <rect x="108" y="582" width="510" height="16" rx="8" fill="#7F9CAB"/>
  <rect x="108" y="614" width="470" height="16" rx="8" fill="#7F9CAB"/>
  <rect x="108" y="654" width="250" height="120" rx="24" fill="#142D3E"/>
  <rect x="392" y="654" width="250" height="120" rx="24" fill="#173448"/>
  <rect x="764" y="540" width="250" height="22" rx="11" fill="#F5FAFD"/>
  <rect x="764" y="584" width="540" height="16" rx="8" fill="#7F9CAB"/>
  <rect x="764" y="616" width="510" height="16" rx="8" fill="#7F9CAB"/>
  <rect x="764" y="660" width="560" height="96" rx="24" fill="#71E1FF" fill-opacity="0.14"/>
</svg>
