<svg width="1440" height="900" viewBox="0 0 1440 900" fill="none" xmlns="http://www.w3.org/2000/svg">
  <rect width="1440" height="900" rx="40" fill="#F6EFE7"/>
  <rect x="44" y="40" width="1352" height="70" rx="24" fill="#FFFFFF"/>
  <rect x="84" y="62" width="240" height="24" rx="12" fill="#CC8B57"/>
  <rect x="1108" y="58" width="216" height="34" rx="17" fill="#3B291A"/>
  <rect x="72" y="150" width="1296" height="230" rx="34" fill="#EFD8C4"/>
  <rect x="110" y="200" width="460" height="34" rx="17" fill="#3B291A"/>
  <rect x="110" y="252" width="600" height="20" rx="10" fill="#715D4D"/>
  <rect x="110" y="286" width="500" height="20" rx="10" fill="#876F5D"/>
  <rect x="110" y="328" width="220" height="48" rx="24" fill="#CC8B57"/>
  <rect x="838" y="178" width="460" height="170" rx="30" fill="#FFFFFF"/>
  <rect x="72" y="420" width="404" height="340" rx="34" fill="#FFFFFF"/>
  <rect x="518" y="420" width="404" height="340" rx="34" fill="#FFFFFF"/>
  <rect x="964" y="420" width="404" height="340" rx="34" fill="#FFFFFF"/>
  <rect x="116" y="472" width="200" height="22" rx="11" fill="#3B291A"/>
  <rect x="116" y="514" width="290" height="16" rx="8" fill="#8F7A68"/>
  <rect x="562" y="472" width="210" height="22" rx="11" fill="#3B291A"/>
  <rect x="562" y="514" width="300" height="16" rx="8" fill="#8F7A68"/>
  <rect x="1008" y="472" width="190" height="22" rx="11" fill="#3B291A"/>
  <rect x="1008" y="514" width="280" height="16" rx="8" fill="#8F7A68"/>
</svg>
