<svg width="1440" height="900" viewBox="0 0 1440 900" fill="none" xmlns="http://www.w3.org/2000/svg">
  <rect width="1440" height="900" rx="40" fill="#0B1117"/>
  <rect x="44" y="40" width="1352" height="72" rx="28" fill="#121C25"/>
  <rect x="82" y="62" width="240" height="28" rx="14" fill="#FFB066"/>
  <rect x="1084" y="58" width="232" height="36" rx="18" fill="#FFB066"/>
  <rect x="66" y="146" width="1308" height="300" rx="38" fill="#141E28"/>
  <rect x="112" y="206" width="540" height="42" rx="21" fill="#FFF7EE"/>
  <rect x="112" y="270" width="560" height="22" rx="11" fill="#B8A596"/>
  <rect x="112" y="304" width="520" height="22" rx="11" fill="#B8A596"/>
  <rect x="112" y="360" width="230" height="54" rx="27" fill="#FFB066"/>
  <rect x="840" y="176" width="470" height="236" rx="34" fill="#172431"/>
  <rect x="70" y="486" width="610" height="334" rx="34" fill="#121C25"/>
  <rect x="718" y="486" width="658" height="334" rx="34" fill="#121C25"/>
  <rect x="116" y="538" width="320" height="24" rx="12" fill="#FFF7EE"/>
  <rect x="116" y="582" width="500" height="16" rx="8" fill="#A79687"/>
  <rect x="116" y="620" width="540" height="110" rx="26" fill="#FFB066" fill-opacity="0.14"/>
  <rect x="764" y="538" width="260" height="24" rx="12" fill="#FFF7EE"/>
  <rect x="764" y="584" width="560" height="16" rx="8" fill="#A79687"/>
  <rect x="764" y="624" width="250" height="136" rx="24" fill="#172431"/>
  <rect x="1046" y="624" width="250" height="136" rx="24" fill="#1D2D3D"/>
</svg>
