<svg width="1440" height="900" viewBox="0 0 1440 900" fill="none" xmlns="http://www.w3.org/2000/svg">
  <rect width="1440" height="900" rx="40" fill="#EDE4D8"/>
  <rect x="44" y="40" width="1352" height="70" rx="24" fill="#FFFFFF"/>
  <rect x="84" y="62" width="280" height="24" rx="12" fill="#8B5A2B"/>
  <rect x="1108" y="58" width="216" height="34" rx="17" fill="#3D2E22"/>
  <rect x="72" y="150" width="1296" height="230" rx="34" fill="#D4C4B0"/>
  <rect x="110" y="200" width="520" height="34" rx="17" fill="#3D2E22"/>
  <rect x="110" y="252" width="580" height="20" rx="10" fill="#5C4A3A"/>
  <rect x="110" y="286" width="480" height="20" rx="10" fill="#6B5A4A"/>
  <rect x="110" y="328" width="200" height="48" rx="24" fill="#8B5A2B"/>
  <rect x="838" y="178" width="460" height="170" rx="30" fill="#F7F2EC"/>
  <rect x="72" y="420" width="404" height="340" rx="34" fill="#FFFFFF"/>
  <rect x="518" y="420" width="404" height="340" rx="34" fill="#FFFFFF"/>
  <rect x="964" y="420" width="404" height="340" rx="34" fill="#FFFFFF"/>
  <rect x="116" y="472" width="200" height="22" rx="11" fill="#3D2E22"/>
  <rect x="116" y="514" width="290" height="16" rx="8" fill="#7A6A5A"/>
  <rect x="562" y="472" width="210" height="22" rx="11" fill="#3D2E22"/>
  <rect x="562" y="514" width="300" height="16" rx="8" fill="#7A6A5A"/>
  <rect x="1008" y="472" width="190" height="22" rx="11" fill="#3D2E22"/>
  <rect x="1008" y="514" width="280" height="16" rx="8" fill="#7A6A5A"/>
</svg>
